<svg xmlns="http://www.w3.org/2000/svg" xmlns:xlink="http://www.w3.org/1999/xlink" width="1000" zoomAndPan="magnify" viewBox="0 0 750 187.499995" height="250" preserveAspectRatio="xMidYMid meet" version="1.0"><defs><g/><clipPath id="56ed8bfc30"><path d="M 0.996094 0 L 749 0 L 749 187 L 0.996094 187 Z M 0.996094 0 " clip-rule="nonzero"/></clipPath><clipPath id="eee96726c3"><rect x="0" width="559" y="0" height="92"/></clipPath><clipPath id="da1a34457f"><rect x="0" width="749" y="0" height="187"/></clipPath></defs><g clip-path="url(#56ed8bfc30)"><g transform="matrix(1, 0, 0, 1, 0, 0)"><g clip-path="url(#da1a34457f)"><path fill="#00bba7" d="M 64.28125 104.726562 C 64.496094 104.855469 64.933594 105.199219 64.964844 105.453125 C 65.914062 113.976562 66.488281 126.753906 63.285156 134.585938 C 84.335938 133.917969 105.390625 133.417969 126.449219 133.082031 C 131.984375 133.011719 137.539062 133.042969 143.074219 133.046875 C 144.867188 133.046875 149.683594 133.539062 150.90625 133.359375 C 150.949219 133.125 150.972656 132.964844 150.945312 132.730469 C 150.421875 128.160156 145.457031 125.195312 141.492188 124.105469 C 136.164062 122.636719 121.800781 123.324219 115.570312 123.328125 C 106.105469 123.28125 96.640625 123.277344 87.179688 123.324219 C 85.421875 123.34375 77.9375 123.78125 76.421875 122.707031 C 74.6875 121.472656 74.820312 117.996094 76.351562 116.554688 C 77.351562 115.613281 80.109375 115.308594 81.621094 115.261719 C 96.613281 114.800781 111.59375 114.585938 126.597656 114.699219 C 135.875 114.714844 145.757812 113.90625 153.21875 120.601562 C 158.597656 125.425781 159.308594 130.058594 159.667969 136.785156 C 163.472656 139.210938 165.363281 141.636719 167.0625 145.851562 C 169.851562 154.757812 166.453125 163.871094 158.40625 168.75 C 153.816406 171.53125 148.195312 171.660156 143.074219 172.5 C 140.152344 172.980469 137.046875 174.558594 134.023438 174.871094 C 123.886719 176.453125 113.761719 176.484375 103.527344 176.5 C 89.332031 176.519531 75.203125 176.625 61.347656 173.023438 C 53.515625 171.085938 45.996094 167.277344 41.785156 160.046875 C 38.082031 153.679688 37.96875 147.773438 39.734375 140.835938 C 36.335938 132.832031 33.988281 124.15625 31.273438 115.898438 C 30.101562 112.328125 28.925781 108.664062 28.027344 105.023438 C 29.5625 105.03125 31.09375 105.054688 32.628906 105.09375 C 33.617188 105.125 35.566406 105.152344 36.332031 105.863281 C 39.082031 108.417969 43.421875 130.5 47.230469 134.289062 C 47.726562 134.785156 48.121094 134.925781 48.816406 134.917969 C 50.640625 134.894531 52.523438 134.3125 53.777344 132.941406 C 58.484375 127.800781 56.878906 114.816406 56.652344 108.328125 C 59.515625 107.207031 61.71875 106.410156 64.28125 104.726562 Z M 72.867188 166.410156 C 95.929688 169.15625 119.269531 168.441406 142.121094 164.292969 C 149.789062 162.871094 158.121094 162.847656 159.351562 152.933594 C 160.191406 146.191406 152.347656 141.933594 146.570312 141.902344 C 142.941406 141.859375 139.25 141.785156 135.617188 141.945312 L 73.820312 143.199219 C 67.808594 143.316406 61.757812 143.429688 55.75 143.179688 C 52.683594 143.054688 50.808594 142.90625 48.578125 145.253906 C 48.214844 145.644531 47.867188 146.042969 47.53125 146.453125 C 45.046875 160.707031 60.945312 164.371094 71.667969 166.207031 Z M 72.867188 166.410156 " fill-opacity="1" fill-rule="nonzero"/><path fill="#00bba7" d="M 24.894531 94.921875 C 24.417969 92.226562 23.675781 89.527344 22.90625 86.902344 C 19.230469 74.328125 16.375 61.578125 13.304688 48.851562 C 11.914062 43.097656 12.085938 37.570312 12.15625 31.695312 C 12.167969 25.785156 12.570312 20.332031 16.105469 15.285156 C 18.582031 11.746094 22.386719 9.367188 26.648438 8.691406 C 36.324219 7.105469 42.945312 14.902344 44.058594 23.726562 C 44.839844 29.925781 43.933594 35.769531 45.246094 41.800781 C 46.21875 45.367188 47.890625 48.945312 48.984375 52.492188 C 51.769531 60.570312 54.921875 68.496094 57.5 76.65625 C 58.898438 81.089844 60.335938 84.464844 61.035156 89.082031 C 58.085938 89.902344 55.964844 90.4375 52.96875 90.980469 C 51.441406 87.613281 50.347656 83.453125 49.257812 79.871094 C 47.699219 74.757812 46.0625 69.664062 44.351562 64.597656 C 41.703125 56.882812 38.574219 49.050781 36.007812 41.347656 C 34.011719 35.367188 38.753906 20.785156 30.6875 17.644531 C 29.171875 17.050781 27.484375 17.097656 26 17.765625 C 24.117188 18.621094 22.304688 20.695312 21.730469 22.691406 C 20.304688 27.652344 20.714844 33.765625 20.402344 38.917969 C 20.070312 44.414062 22.445312 50.136719 23.441406 55.46875 C 26.496094 69.082031 30.328125 82.503906 34.109375 95.925781 C 57.144531 97.601562 84.335938 86.179688 104.332031 75.207031 C 112.535156 70.707031 120.101562 65.679688 127.90625 60.585938 C 125.328125 58.828125 114.453125 54.492188 113.875 53.007812 C 113.816406 50.753906 115.464844 50.269531 117.417969 50.371094 C 123.34375 50.691406 128.75 54.328125 134.585938 54.632812 C 136.265625 54.238281 138.25 52.996094 139.683594 52.21875 C 145.992188 48.785156 151.574219 43.515625 158.335938 41.089844 C 160.039062 40.476562 167.851562 40.507812 168.960938 42 C 170.757812 44.417969 166.683594 49.5625 164.644531 50.835938 C 160.304688 54.085938 155.921875 56.066406 151.132812 58.425781 C 147.730469 60.121094 142.429688 62.113281 139.535156 64.523438 C 138.472656 65.410156 136.605469 69.09375 135.710938 70.460938 C 135.074219 71.820312 134.148438 73.203125 132.695312 73.742188 C 130.121094 73.574219 130.667969 70.167969 130.746094 68.3125 C 130.71875 67.253906 130.71875 66.527344 130.792969 65.472656 C 104.230469 82.289062 77.609375 100.953125 45.007812 103.101562 C 34.988281 103.761719 19.65625 103.519531 11.847656 95.097656 C 10.398438 93.539062 11.78125 90.722656 13.472656 89.605469 C 14.378906 89.527344 15.039062 89.984375 15.753906 90.570312 C 18.539062 92.859375 21.449219 93.898438 24.894531 94.921875 Z M 24.894531 94.921875 " fill-opacity="1" fill-rule="nonzero"/><path fill="#00bba7" d="M 130.746094 68.3125 C 131.105469 69.726562 131.054688 70.148438 132.792969 70.320312 C 133.65625 70.40625 134.902344 70.292969 135.710938 70.460938 C 135.074219 71.820312 134.148438 73.203125 132.695312 73.742188 C 130.121094 73.574219 130.667969 70.167969 130.746094 68.3125 Z M 130.746094 68.3125 " fill-opacity="1" fill-rule="nonzero"/><g transform="matrix(1, 0, 0, 1, 190, 63)"><g clip-path="url(#eee96726c3)"><g fill="#000000" fill-opacity="1"><g transform="translate(0.456488, 62.536195)"><g><path d="M 6.75 -45.640625 L 18.625 -45.640625 L 18.625 -39.703125 C 20.195312 -41.710938 22.125 -43.367188 24.40625 -44.671875 C 26.695312 -45.984375 29.453125 -46.640625 32.671875 -46.640625 C 36.566406 -46.640625 39.894531 -45.800781 42.65625 -44.125 C 45.425781 -42.445312 47.546875 -40.03125 49.015625 -36.875 C 50.585938 -39.550781 52.726562 -41.847656 55.4375 -43.765625 C 58.144531 -45.679688 61.507812 -46.640625 65.53125 -46.640625 C 71.375 -46.640625 75.96875 -44.722656 79.3125 -40.890625 C 82.65625 -37.054688 84.328125 -31.609375 84.328125 -24.546875 L 84.328125 0 L 72.46875 0 L 72.46875 -23.734375 C 72.46875 -27.617188 71.613281 -30.71875 69.90625 -33.03125 C 68.207031 -35.34375 65.710938 -36.5 62.421875 -36.5 C 60.234375 -36.5 58.316406 -35.90625 56.671875 -34.71875 C 55.035156 -33.539062 53.757812 -31.945312 52.84375 -29.9375 C 51.925781 -27.925781 51.46875 -25.734375 51.46875 -23.359375 L 51.46875 0 L 39.609375 0 L 39.609375 -23.734375 C 39.609375 -27.617188 38.753906 -30.71875 37.046875 -33.03125 C 35.347656 -35.34375 32.851562 -36.5 29.5625 -36.5 C 26.15625 -36.5 23.476562 -35.191406 21.53125 -32.578125 C 19.59375 -29.960938 18.625 -26.800781 18.625 -23.09375 L 18.625 0 L 6.75 0 Z M 6.75 -45.640625 "/></g></g></g><g fill="#000000" fill-opacity="1"><g transform="translate(88.037317, 62.536195)"><g><path d="M 2.921875 -45.640625 L 15.78125 -45.640625 L 32.484375 -14.0625 L 44.8125 -45.640625 L 57.5 -45.640625 L 36.421875 6.75 C 34.648438 11.195312 32.0625 14.453125 28.65625 16.515625 C 25.25 18.585938 21.628906 19.625 17.796875 19.625 C 14.628906 19.625 11.96875 19.164062 9.8125 18.25 C 7.65625 17.34375 5.722656 16.25 4.015625 14.96875 L 7.75 7.578125 C 10.488281 9.523438 13.320312 10.5 16.25 10.5 C 17.945312 10.5 19.675781 9.992188 21.4375 8.984375 C 23.207031 7.984375 24.640625 6.050781 25.734375 3.1875 L 27.015625 -0.1875 Z M 2.921875 -45.640625 "/></g></g></g><g fill="#000000" fill-opacity="1"><g transform="translate(148.432191, 62.536195)"><g><path d="M 3.1875 -4.296875 L 8.03125 -11.859375 C 9.425781 -10.703125 11.328125 -9.742188 13.734375 -8.984375 C 16.140625 -8.222656 18.894531 -7.84375 22 -7.84375 C 24.25 -7.84375 26.132812 -8.269531 27.65625 -9.125 C 29.175781 -9.976562 29.9375 -11.132812 29.9375 -12.59375 C 29.9375 -13.875 29.3125 -14.9375 28.0625 -15.78125 C 26.8125 -16.632812 25.179688 -17.394531 23.171875 -18.0625 C 21.171875 -18.738281 19.054688 -19.457031 16.828125 -20.21875 C 14.609375 -20.976562 12.492188 -21.90625 10.484375 -23 C 8.484375 -24.09375 6.859375 -25.472656 5.609375 -27.140625 C 4.359375 -28.816406 3.734375 -30.90625 3.734375 -33.40625 C 3.734375 -37.601562 5.46875 -40.859375 8.9375 -43.171875 C 12.40625 -45.484375 17.03125 -46.640625 22.8125 -46.640625 C 26.28125 -46.640625 29.15625 -46.347656 31.4375 -45.765625 C 33.71875 -45.191406 35.539062 -44.566406 36.90625 -43.890625 C 38.28125 -43.222656 39.242188 -42.707031 39.796875 -42.34375 L 35.59375 -34.59375 C 34.195312 -35.5625 32.445312 -36.347656 30.34375 -36.953125 C 28.25 -37.566406 25.984375 -37.875 23.546875 -37.875 C 22.578125 -37.875 21.453125 -37.78125 20.171875 -37.59375 C 18.890625 -37.414062 17.773438 -37.019531 16.828125 -36.40625 C 15.890625 -35.800781 15.421875 -34.859375 15.421875 -33.578125 C 15.421875 -32.304688 16.054688 -31.257812 17.328125 -30.4375 C 18.609375 -29.613281 20.253906 -28.851562 22.265625 -28.15625 C 24.273438 -27.457031 26.390625 -26.726562 28.609375 -25.96875 C 30.828125 -25.207031 32.941406 -24.265625 34.953125 -23.140625 C 36.960938 -22.015625 38.601562 -20.613281 39.875 -18.9375 C 41.15625 -17.257812 41.796875 -15.175781 41.796875 -12.6875 C 41.796875 -8.425781 39.984375 -5.0625 36.359375 -2.59375 C 32.742188 -0.132812 27.925781 1.09375 21.90625 1.09375 C 18.070312 1.09375 14.90625 0.757812 12.40625 0.09375 C 9.914062 -0.570312 7.953125 -1.332031 6.515625 -2.1875 C 5.085938 -3.039062 3.976562 -3.742188 3.1875 -4.296875 Z M 3.1875 -4.296875 "/></g></g></g><g fill="#000000" fill-opacity="1"><g transform="translate(193.135346, 62.536195)"><g><path d="M 4.375 -22.8125 C 4.375 -27.257812 5.363281 -31.273438 7.34375 -34.859375 C 9.320312 -38.453125 12.117188 -41.3125 15.734375 -43.4375 C 19.359375 -45.570312 23.632812 -46.640625 28.5625 -46.640625 C 33.800781 -46.640625 38.210938 -45.5 41.796875 -43.21875 C 45.390625 -40.9375 48.066406 -37.847656 49.828125 -33.953125 C 51.597656 -30.054688 52.359375 -25.644531 52.109375 -20.71875 L 16.34375 -20.71875 C 16.707031 -17.007812 18.117188 -13.984375 20.578125 -11.640625 C 23.046875 -9.296875 25.984375 -8.125 29.390625 -8.125 C 32.066406 -8.125 34.5 -8.6875 36.6875 -9.8125 C 38.875 -10.9375 40.703125 -12.625 42.171875 -14.875 L 49.734375 -9.953125 C 47.972656 -6.910156 45.296875 -4.320312 41.703125 -2.1875 C 38.117188 -0.0625 33.738281 1 28.5625 1 C 23.875 1 19.707031 -0.0625 16.0625 -2.1875 C 12.414062 -4.320312 9.554688 -7.179688 7.484375 -10.765625 C 5.410156 -14.359375 4.375 -18.375 4.375 -22.8125 Z M 16.796875 -28.015625 L 41.0625 -28.015625 C 40.945312 -30.816406 39.773438 -33.160156 37.546875 -35.046875 C 35.328125 -36.929688 32.609375 -37.875 29.390625 -37.875 C 26.222656 -37.875 23.515625 -37.003906 21.265625 -35.265625 C 19.015625 -33.535156 17.523438 -31.117188 16.796875 -28.015625 Z M 16.796875 -28.015625 "/></g></g></g><g fill="#000000" fill-opacity="1"><g transform="translate(249.698521, 62.536195)"><g><path d="M 27.46875 0.90625 C 23.332031 0.90625 19.5 -0.125 15.96875 -2.1875 C 12.4375 -4.257812 9.617188 -7.085938 7.515625 -10.671875 C 5.421875 -14.265625 4.375 -18.28125 4.375 -22.71875 C 4.375 -27.226562 5.410156 -31.273438 7.484375 -34.859375 C 9.554688 -38.453125 12.335938 -41.296875 15.828125 -43.390625 C 19.328125 -45.492188 23.144531 -46.546875 27.28125 -46.546875 C 30.632812 -46.546875 33.632812 -45.9375 36.28125 -44.71875 C 38.925781 -43.5 41.128906 -41.828125 42.890625 -39.703125 L 42.890625 -45.640625 L 54.765625 -45.640625 L 54.765625 0 L 42.890625 0 L 42.890625 -6.109375 C 41.066406 -3.984375 38.847656 -2.28125 36.234375 -1 C 33.617188 0.269531 30.695312 0.90625 27.46875 0.90625 Z M 29.390625 -37.046875 C 26.828125 -37.046875 24.523438 -36.375 22.484375 -35.03125 C 20.453125 -33.695312 18.859375 -31.953125 17.703125 -29.796875 C 16.546875 -27.640625 15.96875 -25.28125 15.96875 -22.71875 C 15.96875 -20.226562 16.546875 -17.882812 17.703125 -15.6875 C 18.859375 -13.5 20.453125 -11.75 22.484375 -10.4375 C 24.523438 -9.132812 26.828125 -8.484375 29.390625 -8.484375 C 32.003906 -8.484375 34.3125 -9.148438 36.3125 -10.484375 C 38.320312 -11.828125 39.921875 -13.578125 41.109375 -15.734375 C 42.296875 -17.898438 42.890625 -20.226562 42.890625 -22.71875 C 42.890625 -25.28125 42.296875 -27.640625 41.109375 -29.796875 C 39.921875 -31.953125 38.320312 -33.695312 36.3125 -35.03125 C 34.3125 -36.375 32.003906 -37.046875 29.390625 -37.046875 Z M 29.390625 -37.046875 "/></g></g></g><g fill="#000000" fill-opacity="1"><g transform="translate(311.188167, 62.536195)"><g><path d="M 8.484375 -36.140625 L 1.921875 -36.140625 L 1.921875 -45.640625 L 8.484375 -45.640625 L 8.484375 -57.046875 L 20.359375 -57.046875 L 20.359375 -45.640625 L 31.484375 -45.640625 L 31.484375 -36.140625 L 20.359375 -36.140625 L 20.359375 -15.609375 C 20.359375 -13.109375 20.738281 -11.28125 21.5 -10.125 C 22.257812 -8.96875 23.609375 -8.390625 25.546875 -8.390625 C 26.398438 -8.390625 27.3125 -8.476562 28.28125 -8.65625 C 29.257812 -8.84375 30.238281 -9.0625 31.21875 -9.3125 L 33.5 -0.734375 C 31.851562 -0.117188 30.128906 0.304688 28.328125 0.546875 C 26.535156 0.785156 24.847656 0.90625 23.265625 0.90625 C 17.734375 0.90625 13.882812 -0.582031 11.71875 -3.5625 C 9.5625 -6.539062 8.484375 -10.523438 8.484375 -15.515625 Z M 8.484375 -36.140625 "/></g></g></g><g fill="#000000" fill-opacity="1"><g transform="translate(348.319154, 62.536195)"><g><path d="M 6.75 -45.640625 L 18.625 -45.640625 L 18.625 -39.703125 C 20.195312 -41.710938 22.125 -43.367188 24.40625 -44.671875 C 26.695312 -45.984375 29.453125 -46.640625 32.671875 -46.640625 C 36.566406 -46.640625 39.894531 -45.800781 42.65625 -44.125 C 45.425781 -42.445312 47.546875 -40.03125 49.015625 -36.875 C 50.585938 -39.550781 52.726562 -41.847656 55.4375 -43.765625 C 58.144531 -45.679688 61.507812 -46.640625 65.53125 -46.640625 C 71.375 -46.640625 75.96875 -44.722656 79.3125 -40.890625 C 82.65625 -37.054688 84.328125 -31.609375 84.328125 -24.546875 L 84.328125 0 L 72.46875 0 L 72.46875 -23.734375 C 72.46875 -27.617188 71.613281 -30.71875 69.90625 -33.03125 C 68.207031 -35.34375 65.710938 -36.5 62.421875 -36.5 C 60.234375 -36.5 58.316406 -35.90625 56.671875 -34.71875 C 55.035156 -33.539062 53.757812 -31.945312 52.84375 -29.9375 C 51.925781 -27.925781 51.46875 -25.734375 51.46875 -23.359375 L 51.46875 0 L 39.609375 0 L 39.609375 -23.734375 C 39.609375 -27.617188 38.753906 -30.71875 37.046875 -33.03125 C 35.347656 -35.34375 32.851562 -36.5 29.5625 -36.5 C 26.15625 -36.5 23.476562 -35.191406 21.53125 -32.578125 C 19.59375 -29.960938 18.625 -26.800781 18.625 -23.09375 L 18.625 0 L 6.75 0 Z M 6.75 -45.640625 "/></g></g></g><g fill="#000000" fill-opacity="1"><g transform="translate(438.637773, 62.536195)"><g><path d="M 27.46875 0.90625 C 23.332031 0.90625 19.5 -0.125 15.96875 -2.1875 C 12.4375 -4.257812 9.617188 -7.085938 7.515625 -10.671875 C 5.421875 -14.265625 4.375 -18.28125 4.375 -22.71875 C 4.375 -27.226562 5.410156 -31.273438 7.484375 -34.859375 C 9.554688 -38.453125 12.335938 -41.296875 15.828125 -43.390625 C 19.328125 -45.492188 23.144531 -46.546875 27.28125 -46.546875 C 30.632812 -46.546875 33.632812 -45.9375 36.28125 -44.71875 C 38.925781 -43.5 41.128906 -41.828125 42.890625 -39.703125 L 42.890625 -45.640625 L 54.765625 -45.640625 L 54.765625 0 L 42.890625 0 L 42.890625 -6.109375 C 41.066406 -3.984375 38.847656 -2.28125 36.234375 -1 C 33.617188 0.269531 30.695312 0.90625 27.46875 0.90625 Z M 29.390625 -37.046875 C 26.828125 -37.046875 24.523438 -36.375 22.484375 -35.03125 C 20.453125 -33.695312 18.859375 -31.953125 17.703125 -29.796875 C 16.546875 -27.640625 15.96875 -25.28125 15.96875 -22.71875 C 15.96875 -20.226562 16.546875 -17.882812 17.703125 -15.6875 C 18.859375 -13.5 20.453125 -11.75 22.484375 -10.4375 C 24.523438 -9.132812 26.828125 -8.484375 29.390625 -8.484375 C 32.003906 -8.484375 34.3125 -9.148438 36.3125 -10.484375 C 38.320312 -11.828125 39.921875 -13.578125 41.109375 -15.734375 C 42.296875 -17.898438 42.890625 -20.226562 42.890625 -22.71875 C 42.890625 -25.28125 42.296875 -27.640625 41.109375 -29.796875 C 39.921875 -31.953125 38.320312 -33.695312 36.3125 -35.03125 C 34.3125 -36.375 32.003906 -37.046875 29.390625 -37.046875 Z M 29.390625 -37.046875 "/></g></g></g><g fill="#000000" fill-opacity="1"><g transform="translate(497.389628, 62.536195)"><g><path d="M 6.75 -45.640625 L 18.625 -45.640625 L 18.625 -39.609375 C 20.382812 -41.734375 22.601562 -43.421875 25.28125 -44.671875 C 27.957031 -45.921875 30.96875 -46.546875 34.3125 -46.546875 C 38.507812 -46.546875 42.328125 -45.492188 45.765625 -43.390625 C 49.203125 -41.296875 51.953125 -38.453125 54.015625 -34.859375 C 56.085938 -31.273438 57.125 -27.226562 57.125 -22.71875 C 57.125 -18.21875 56.070312 -14.1875 53.96875 -10.625 C 51.875 -7.070312 49.078125 -4.257812 45.578125 -2.1875 C 42.085938 -0.125 38.242188 0.90625 34.046875 0.90625 C 30.753906 0.90625 27.800781 0.269531 25.1875 -1 C 22.570312 -2.28125 20.382812 -3.984375 18.625 -6.109375 L 18.625 18.25 L 6.75 18.25 Z M 18.625 -22.71875 C 18.625 -20.226562 19.210938 -17.882812 20.390625 -15.6875 C 21.578125 -13.5 23.191406 -11.75 25.234375 -10.4375 C 27.273438 -9.132812 29.570312 -8.484375 32.125 -8.484375 C 34.738281 -8.484375 37.050781 -9.148438 39.0625 -10.484375 C 41.070312 -11.828125 42.671875 -13.578125 43.859375 -15.734375 C 45.046875 -17.898438 45.640625 -20.226562 45.640625 -22.71875 C 45.640625 -25.28125 45.046875 -27.640625 43.859375 -29.796875 C 42.671875 -31.953125 41.070312 -33.695312 39.0625 -35.03125 C 37.050781 -36.375 34.738281 -37.046875 32.125 -37.046875 C 29.570312 -37.046875 27.273438 -36.375 25.234375 -35.03125 C 23.191406 -33.695312 21.59375 -31.953125 20.4375 -29.796875 C 19.28125 -27.640625 18.675781 -25.28125 18.625 -22.71875 Z M 18.625 -22.71875 "/></g></g></g></g></g></g></g></g></svg>